GIL08_fast1_ik
nRows=3
nColumns=375

# SIMM Motion File Header:
name GIL08_fast1_ik
datacolumns 375
datarows 3
otherdata 1
range 0.33333000 0.35000000
endheader
time	pelvis_tx	pelvis_ty	pelvis_tz	pelvis_tilt	pelvis_list	pelvis_rotation	hip_flexion_r	hip_adduction_r	hip_rotation_r	knee_angle_r	ankle_angle_r	hip_flexion_l	hip_adduction_l	hip_rotation_l	knee_angle_l	ankle_angle_l	lumbar_extension	lumbar_bending	lumbar_rotation	subtalar_angle_r	mtp_angle_r	subtalar_angle_l	mtp_angle_l	asis_r_px	asis_r_py	asis_r_pz	asis_l_px	asis_l_py	asis_l_pz	midasis_px	midasis_py	midasis_pz	psis_r_px	psis_r_py	psis_r_pz	psis_l_px	psis_l_py	psis_l_pz	hip_r_px	hip_r_py	hip_r_pz	hip_l_px	hip_l_py	hip_l_pz	midhip_px	midhip_py	midhip_pz	epicondLat_r_px	epicondLat_r_py	epicondLat_r_pz	epicondMed_r_px	epicondMed_r_py	epicondMed_r_pz	thighwand_r_px	thighwand_r_py	thighwand_r_pz	upperleg1_r_px	upperleg1_r_py	upperleg1_r_pz	upperleg2_r_px	upperleg2_r_py	upperleg2_r_pz	malleolusLat_r_px	malleolusLat_r_py	malleolusLat_r_pz	malleolusMedv_r_px	malleolusMedv_r_py	malleolusMedv_r_pz	shankwand_r_px	shankwand_r_py	shankwand_r_pz	lowerleg1_r_px	lowerleg1_r_py	lowerleg1_r_pz	knee_r_px	knee_r_py	knee_r_pz	ankle_r_px	ankle_r_py	ankle_r_pz	toe_r_px	toe_r_py	toe_r_pz	epicondLat_l_px	epicondLat_l_py	epicondLat_l_pz	epicondMed_l_px	epicondMed_l_py	epicondMed_l_pz	thighwand_l_px	thighwand_l_py	thighwand_l_pz	upperleg1_l_px	upperleg1_l_py	upperleg1_l_pz	upperleg2_l_px	upperleg2_l_py	upperleg2_l_pz	malleolusLat_l_px	malleolusLat_l_py	malleolusLat_l_pz	malleolusMedv_l_px	malleolusMedv_l_py	malleolusMedv_l_pz	shankwand_l_px	shankwand_l_py	shankwand_l_pz	lowerleg1_l_px	lowerleg1_l_py	lowerleg1_l_pz	knee_l_px	knee_l_py	knee_l_pz	ankle_l_px	ankle_l_py	ankle_l_pz	toe_l_px	toe_l_py	toe_l_pz	subclavicle_r_px	subclavicle_r_py	subclavicle_r_pz	subclavicle_l_px	subclavicle_l_py	subclavicle_l_pz	neck_px	neck_py	neck_pz	sternalnotch_px	sternalnotch_py	sternalnotch_pz	xyphoidprocess_px	xyphoidprocess_py	xyphoidprocess_pz	midhip_tx	midhip_ty	midhip_tz	hip_r_tx	hip_r_ty	hip_r_tz	hip_l_tx	hip_l_ty	hip_l_tz	knee_r_tx	knee_r_ty	knee_r_tz	knee_l_tx	knee_l_ty	knee_l_tz	ankle_r_tx	ankle_r_ty	ankle_r_tz	ankle_l_tx	ankle_l_ty	ankle_l_tz	midasis_tx	midasis_ty	midasis_tz	asis_r_tx	asis_r_ty	asis_r_tz	asis_l_tx	asis_l_ty	asis_l_tz	psis_r_tx	psis_r_ty	psis_r_tz	psis_l_tx	psis_l_ty	psis_l_tz	epicondLat_r_tx	epicondLat_r_ty	epicondLat_r_tz	epicondLat_l_tx	epicondLat_l_ty	epicondLat_l_tz	epicondMed_r_tx	epicondMed_r_ty	epicondMed_r_tz	epicondMed_l_tx	epicondMed_l_ty	epicondMed_l_tz	malleolusLat_r_tx	malleolusLat_r_ty	malleolusLat_r_tz	malleolusLat_l_tx	malleolusLat_l_ty	malleolusLat_l_tz	malleolusMedv_r_tx	malleolusMedv_r_ty	malleolusMedv_r_tz	malleolusMedv_l_tx	malleolusMedv_l_ty	malleolusMedv_l_tz	neck_tx	neck_ty	neck_tz	subclavicle_r_tx	subclavicle_r_ty	subclavicle_r_tz	subclavicle_l_tx	subclavicle_l_ty	subclavicle_l_tz	sternalnotch_tx	sternalnotch_ty	sternalnotch_tz	xyphoidprocess_tx	xyphoidprocess_ty	xyphoidprocess_tz	thighwand_r_tx	thighwand_r_ty	thighwand_r_tz	thighwand_l_tx	thighwand_l_ty	thighwand_l_tz	upperleg1_r_tx	upperleg1_r_ty	upperleg1_r_tz	upperleg1_l_tx	upperleg1_l_ty	upperleg1_l_tz	upperleg2_r_tx	upperleg2_r_ty	upperleg2_r_tz	upperleg2_l_tx	upperleg2_l_ty	upperleg2_l_tz	shankwand_r_tx	shankwand_r_ty	shankwand_r_tz	shankwand_l_tx	shankwand_l_ty	shankwand_l_tz	lowerleg1_r_tx	lowerleg1_r_ty	lowerleg1_r_tz	lowerleg1_l_tx	lowerleg1_l_ty	lowerleg1_l_tz	toe_r_tx	toe_r_ty	toe_r_tz	toe_l_tx	toe_l_ty	toe_l_tz	ground_force_vx	ground_force_vy	ground_force_vz	ground_force_px	ground_force_py	ground_force_pz	ground_force_vx	ground_force_vy	ground_force_vz	ground_force_px	ground_force_py	ground_force_pz	ground_torque_x	ground_torque_y	ground_torque_z	ground_torque_x	ground_torque_y	ground_torque_z	ground_marker_px	ground_marker_py	ground_marker_pz	ground_marker_px	ground_marker_py	ground_marker_pz	ground_marker_px	ground_marker_py	ground_marker_pz	ground_marker_px	ground_marker_py	ground_marker_pz	ground_marker_px	ground_marker_py	ground_marker_pz	ground_marker_px	ground_marker_py	ground_marker_pz	ground_marker_px	ground_marker_py	ground_marker_pz	ground_marker_px	ground_marker_py	ground_marker_pz	ground_marker_px	ground_marker_py	ground_marker_pz	ground_marker_px	ground_marker_py	ground_marker_pz	ground_marker_px	ground_marker_py	ground_marker_pz	ground_marker_px	ground_marker_py	ground_marker_pz	ground_marker_px	ground_marker_py	ground_marker_pz	ground_marker_px	ground_marker_py	ground_marker_pz	ground_marker_px	ground_marker_py	ground_marker_pz	ground_marker_px	ground_marker_py	ground_marker_pz	ground_marker_px	ground_marker_py	ground_marker_pz	ground_marker_px	ground_marker_py	ground_marker_pz	ground_marker_px	ground_marker_py	ground_marker_pz	ground_marker_px	ground_marker_py	ground_marker_pz	ground_marker_px	ground_marker_py	ground_marker_pz	ground_marker_px	ground_marker_py	ground_marker_pz	ground_marker_px	ground_marker_py	ground_marker_pz	ground_marker_px	ground_marker_py	ground_marker_pz	ground_marker_px	ground_marker_py	ground_marker_pz	ground_marker_px	ground_marker_py	ground_marker_pz	ground_marker_px	ground_marker_py	ground_marker_pz	ground_marker_px	ground_marker_py	ground_marker_pz	ground_marker_px	ground_marker_py	ground_marker_pz	ground_marker_px	ground_marker_py	ground_marker_pz	ground_marker_px	ground_marker_py	ground_marker_pz	ground_marker_px	ground_marker_py	ground_marker_pz	ground_marker_px	ground_marker_py	ground_marker_pz	ground_marker_px	ground_marker_py	ground_marker_pz	ground_marker_px	ground_marker_py	ground_marker_pz	ground_marker_px	ground_marker_py	ground_marker_pz	ground_marker_px	ground_marker_py	ground_marker_pz
      0.33333000	      0.86824220	      0.95090979	     -0.25969854	      3.13070793	      0.71603041	     -3.33250605	     21.56576299	     -0.17703209	      3.91999077	    -45.57260027	      8.62965794	     -7.54582748	      1.80124439	      5.56059447	    -13.68982213	     15.71959211	    -10.47435955	     -3.13379102	      2.70997064	      0.00000000	      0.00000000	      0.00000000	      0.00000000	      0.90982723	      0.97150581	     -0.15742579	      0.91474820	      0.97824637	     -0.37021667	      0.87985393	      0.95153643	     -0.25902147	      0.70810375	      0.97304042	     -0.22488357	      0.70774484	      0.97644407	     -0.31298868	      0.80862115	      0.89174895	     -0.19445402	      0.81659152	      0.89392095	     -0.33315601	      0.81260634	      0.89283495	     -0.26380501	      1.03621992	      0.51721095	     -0.13963681	      1.00402427	      0.52246585	     -0.25571529	      1.02028100	      0.64155740	     -0.06660796	      1.00326172	      0.69827869	     -0.13955289	      1.03614777	      0.62326128	     -0.16076922	      0.82060881	      0.10928891	     -0.14063281	      0.81941275	      0.10791354	     -0.20914969	      0.87046916	      0.16842899	     -0.07665766	      0.87969192	      0.22702117	     -0.13920994	      0.98623595	      0.51167381	     -0.18910055	      0.83737041	      0.12241210	     -0.18246254	      0.93933615	      0.05940057	     -0.17826043	      0.82665966	      0.45755913	     -0.39501038	      0.79501655	      0.46767376	     -0.29201576	      0.96873377	      0.58770267	     -0.31953817	      0.90440720	      0.65112894	     -0.36869068	      0.88813767	      0.56588393	     -0.36937325	      0.64385606	      0.06644539	     -0.38079117	      0.64654006	      0.07245510	     -0.31125771	      0.77882793	      0.13375974	     -0.32293221	      0.73381186	      0.20314797	     -0.34123252	      0.78163568	      0.48115317	     -0.32882258	      0.65262826	      0.08494886	     -0.33925918	      0.77473682	      0.03527370	     -0.34129671	      0.85533119	      1.36108652	     -0.18671597	      0.86305043	      1.35947047	     -0.34216421	      0.76370258	      1.43643685	     -0.28054504	      0.84714905	      1.36204457	     -0.26902224	      0.87692823	      1.15930767	     -0.27210021	      0.80770000	      0.88750800	     -0.26855100	      0.80277300	      0.87795100	     -0.21524300	      0.80983900	      0.87906000	     -0.32157300	      0.98190500	      0.49408600	     -0.20070600	      0.78003100	      0.46967900	     -0.32393200	      0.83568800	      0.10604000	     -0.19871300	      0.64741200	      0.07100300	     -0.31312300	      0.88671400	      0.97374100	     -0.26207100	      0.87989500	      0.97267100	     -0.15947000	      0.89353200	      0.97481100	     -0.36467200	      0.68736000	      1.00101800	     -0.22969200	      0.69035800	      1.00688000	     -0.31492200	      0.98151300	      0.49615500	     -0.14124300	      0.78981100	      0.46930600	     -0.38262200	      0.98807500	      0.50430200	     -0.26256400	      0.75798500	      0.47521700	     -0.27960800	      0.82831200	      0.10901000	     -0.16155400	      0.64745800	      0.06991800	     -0.35260800	      0.83932200	      0.11054900	     -0.23090700	      0.65545400	      0.07819200	     -0.28333700	      0.76835600	      1.45921000	     -0.27940400	      0.85803600	      1.38870400	     -0.18980900	      0.86662000	      1.38280800	     -0.34703200	      0.85029000	      1.38731400	     -0.27310700	      0.88147100	      1.18473900	     -0.27056700	      0.96096600	      0.59033300	     -0.05617800	      0.93745400	      0.58126100	     -0.32284600	      0.96870900	      0.65968400	     -0.12183900	      0.87745800	      0.64727100	     -0.36893900	      1.00050400	      0.58579000	     -0.14654600	      0.85367700	      0.56203200	     -0.36568300	      0.86117500	      0.17930500	     -0.09362400	      0.77959300	      0.14819000	     -0.30299500	      0.87046300	      0.23630300	     -0.15601900	      0.73044000	      0.21332700	     -0.32126800	      0.94403900	      0.05879400	     -0.18902700	      0.77310700	      0.04106700	     -0.31948800	      0.00000000	      0.00000000	      0.00000000	      1.31122144	      0.00000000	     -0.18434729	      2.36546946	    494.72740645	     22.07928976	      0.77359967	      0.00000000	     -0.31767688	      0.00000000	      0.00000000	      0.00000000	      0.00000000	     -0.57580621	      0.00000000	      0.80769974	      0.88750798	     -0.26855108	      0.80277318	      0.87795055	     -0.21524321	      0.80983949	      0.87905961	     -0.32157284	      0.98190498	      0.49408615	     -0.20070556	      0.78003085	      0.46967945	     -0.32393229	      0.83568770	      0.10603981	     -0.19871253	      0.64741230	      0.07100350	     -0.31312287	      0.88671392	      0.97374135	     -0.26207107	      0.87989545	      0.97267121	     -0.15947048	      0.89353240	      0.97481149	     -0.36467165	      0.68736041	      1.00101769	     -0.22969189	      0.69035769	      1.00688028	     -0.31492186	      0.98151320	      0.49615526	     -0.14124283	      0.78981060	      0.46930560	     -0.38262185	      0.98807532	      0.50430161	     -0.26256391	      0.75798500	      0.47521669	     -0.27960750	      0.82831168	      0.10900996	     -0.16155377	      0.64745766	      0.06991784	     -0.35260791	      0.83932173	      0.11054888	     -0.23090704	      0.65545440	      0.07819187	     -0.28333694	      0.76835591	      1.45920956	     -0.27940446	      0.85803556	      1.38870430	     -0.18980870	      0.86662018	      1.38280821	     -0.34703159	      0.85028988	      1.38731432	     -0.27310655	      0.88147074	      1.18473911	     -0.27056688	      0.96096593	      0.59033275	     -0.05617763	      0.93745357	      0.58126146	     -0.32284561	      0.96870941	      0.65968353	     -0.12183874	      0.87745839	      0.64727098	     -0.36893877	      1.00050378	      0.58578956	     -0.14654623	      0.85367686	      0.56203246	     -0.36568263	      0.86117476	      0.17930451	     -0.09362379	      0.77959299	      0.14818975	     -0.30299476	      0.87046349	      0.23630303	     -0.15601912	      0.73044008	      0.21332733	     -0.32126758	      0.94403934	      0.05879384	     -0.18902723	      0.77310735	      0.04106717	     -0.31948844
      0.34167000	      0.88111097	      0.94962366	     -0.26063279	      3.10345223	      0.33853183	     -2.63522808	     22.25499674	      0.10671960	      4.05990893	    -43.34000697	      8.70419865	     -8.63675417	      1.30396863	      6.18939444	    -13.15553406	     15.99675835	    -10.53570963	     -2.57895126	      2.27106352	      0.00000000	      0.00000000	      0.00000000	      0.00000000	      0.92390592	      0.97094250	     -0.15900935	      0.92631905	      0.97614068	     -0.37188669	      0.89273008	      0.95025046	     -0.26009725	      0.72140137	      0.97207078	     -0.22409319	      0.72000447	      0.97483677	     -0.31221028	      0.82224457	      0.89096085	     -0.19426304	      0.82857923	      0.89212561	     -0.33306146	      0.82541190	      0.89154323	     -0.26366225	      1.05513267	      0.51939485	     -0.14147406	      1.02103203	      0.52374521	     -0.25704485	      1.03887887	      0.64387154	     -0.06873708	      1.02002555	      0.70005817	     -0.14164481	      1.05346075	      0.62534061	     -0.16306003	      0.85984123	      0.10332402	     -0.13744736	      0.85758334	      0.10158908	     -0.20592930	      0.90768172	      0.16519972	     -0.07452590	      0.91287745	      0.22390960	     -0.13743095	      1.00397101	      0.51338342	     -0.19010636	      0.87521964	      0.11709772	     -0.17959810	      0.98038622	      0.05949920	     -0.17685525	      0.83041206	      0.45573944	     -0.39553322	      0.79899780	      0.46630233	     -0.29251354	      0.97493481	      0.58307889	     -0.31992707	      0.91179785	      0.64777414	     -0.36896806	      0.89392639	      0.56285152	     -0.36976495	      0.64396334	      0.06678231	     -0.38120818	      0.64674356	      0.07276544	     -0.31167620	      0.77960786	      0.13279628	     -0.32342401	      0.73525041	      0.20261397	     -0.34169919	      0.78575004	      0.48014675	     -0.32931524	      0.65293598	      0.08520034	     -0.33968103	      0.77480042	      0.03493606	     -0.34187964	      0.86865532	      1.35964354	     -0.18681314	      0.87591261	      1.35824035	     -0.34228570	      0.77680299	      1.43519083	     -0.28026433	      0.86022994	      1.36072303	     -0.26909336	      0.88985464	      1.15796950	     -0.27254396	      0.82016900	      0.88629300	     -0.26837900	      0.81609700	      0.87698900	     -0.21401900	      0.82184500	      0.87747100	     -0.32043300	      1.00004200	      0.49533000	     -0.20073400	      0.78435100	      0.46889200	     -0.32415600	      0.87381900	      0.10024500	     -0.19740100	      0.64778700	      0.07162000	     -0.31310000	      0.89947500	      0.97247600	     -0.26244600	      0.89392500	      0.97201000	     -0.15971500	      0.90502400	      0.97294200	     -0.36517600	      0.70023400	      0.99987000	     -0.22844000	      0.70235700	      1.00558800	     -0.31379800	      1.00059500	      0.49766600	     -0.14128200	      0.79407100	      0.46853500	     -0.38285500	      1.00445100	      0.50523700	     -0.26280900	      0.76535400	      0.47277100	     -0.27828300	      0.86630600	      0.10295900	     -0.16025000	      0.64777900	      0.07052400	     -0.35258500	      0.87699600	      0.10498800	     -0.22965200	      0.65585800	      0.07879300	     -0.28334800	      0.78152400	      1.45808800	     -0.27913500	      0.87124100	      1.38728100	     -0.18978000	      0.87962500	      1.38170600	     -0.34707500	      0.86339100	      1.38607600	     -0.27309500	      0.89433600	      1.18345900	     -0.27102400	      0.98022800	      0.59211800	     -0.05640000	      0.94348400	      0.57838300	     -0.32282900	      0.98544700	      0.66114300	     -0.12279100	      0.88213900	      0.64569600	     -0.36907500	      1.01786900	      0.58785700	     -0.14758900	      0.85939500	      0.56056100	     -0.36541700	      0.89554100	      0.17506300	     -0.09254400	      0.78069400	      0.14753800	     -0.30314400	      0.90180900	      0.23227400	     -0.15505800	      0.73216100	      0.21306900	     -0.32138500	      0.98446200	      0.05877700	     -0.18802800	      0.77317500	      0.04107300	     -0.31956400	      0.00000000	      0.00000000	      0.00000000	      1.31742773	      0.00000000	     -0.18441457	      6.00723236	    505.60142721	     21.39510344	      0.77687695	      0.00000000	     -0.31765100	      0.00000000	      0.00000000	      0.00000000	      0.00000000	     -0.72293927	      0.00000000	      0.82016909	      0.88629299	     -0.26837879	      0.81609690	      0.87698871	     -0.21401936	      0.82184541	      0.87747121	     -0.32043308	      1.00004220	      0.49533013	     -0.20073403	      0.78435081	      0.46889189	     -0.32415557	      0.87381947	      0.10024509	     -0.19740091	      0.64778733	      0.07161975	     -0.31310034	      0.89947462	      0.97247601	     -0.26244557	      0.89392513	      0.97201025	     -0.15971525	      0.90502411	      0.97294182	     -0.36517587	      0.70023382	      0.99986976	     -0.22843985	      0.70235723	      1.00558794	     -0.31379756	      1.00059533	      0.49766621	     -0.14128248	      0.79407072	      0.46853471	     -0.38285521	      1.00445139	      0.50523669	     -0.26280868	      0.76535404	      0.47277144	     -0.27828288	      0.86630642	      0.10295881	     -0.16025001	      0.64777917	      0.07052378	     -0.35258514	      0.87699592	      0.10498814	     -0.22965190	      0.65585804	      0.07879325	     -0.28334796	      0.78152418	      1.45808804	     -0.27913523	      0.87124062	      1.38728106	     -0.18977958	      0.87962478	      1.38170636	     -0.34707502	      0.86339062	      1.38607585	     -0.27309534	      0.89433587	      1.18345916	     -0.27102378	      0.98022777	      0.59211791	     -0.05640012	      0.94348425	      0.57838279	     -0.32282943	      0.98544723	      0.66114306	     -0.12279072	      0.88213933	      0.64569634	     -0.36907524	      1.01786935	      0.58785701	     -0.14758922	      0.85939485	      0.56056052	     -0.36541682	      0.89554149	      0.17506292	     -0.09254366	      0.78069419	      0.14753769	     -0.30314401	      0.90180898	      0.23227379	     -0.15505826	      0.73216134	      0.21306877	     -0.32138494	      0.98446167	      0.05877749	     -0.18802842	      0.77317542	      0.04107265	     -0.31956407
      0.35000000	      0.89409034	      0.94821397	     -0.26158091	      3.09017105	     -0.01162947	     -1.91978981	     22.85115197	      0.29447481	      4.18135382	    -40.97318073	      8.61790092	     -9.74940727	      0.82297444	      6.87832209	    -12.59493139	     16.21838109	    -10.59933246	     -2.05124874	      1.84893916	      0.00000000	      0.00000000	      0.00000000	      0.00000000	      0.93811900	      0.97021073	     -0.16063121	      0.93794873	      0.97396584	     -0.37355250	      0.90571519	      0.94884163	     -0.26119069	      0.73483953	      0.97094605	     -0.22325855	      0.73237354	      0.97311526	     -0.31136892	      0.83602482	      0.89001618	     -0.19410548	      0.84067437	      0.89023896	     -0.33297527	      0.83834960	      0.89012757	     -0.26354038	      1.07352872	      0.52114160	     -0.14303412	      1.03761058	      0.52453689	     -0.25808518	      1.05710935	      0.64582381	     -0.07068737	      1.03655619	      0.70143168	     -0.14357944	      1.07042901	      0.62695022	     -0.16512899	      0.89928556	      0.09798164	     -0.13432262	      0.89600776	      0.09582691	     -0.20275140	      0.94488581	      0.16252068	     -0.07242147	      0.94602260	      0.22113886	     -0.13561568	      1.02119105	      0.51468410	     -0.19083092	      0.91324589	      0.11234117	     -0.17677033	      1.02119759	      0.06009053	     -0.17557771	      0.83418467	      0.45396309	     -0.39590555	      0.80291439	      0.46501864	     -0.29289376	      0.98107357	      0.57843121	     -0.32007819	      0.91921832	      0.64437537	     -0.36908906	      0.89972353	      0.55981164	     -0.36998617	      0.64415829	      0.06719844	     -0.38147814	      0.64697007	      0.07318451	     -0.31194769	      0.78040240	      0.13194658	     -0.32367234	      0.73671623	      0.20217435	     -0.34199319	      0.78984330	      0.47922056	     -0.32970800	      0.65329035	      0.08554815	     -0.33995550	      0.77486727	      0.03459274	     -0.34216315	      0.88214335	      1.35806493	     -0.18691027	      0.88883301	      1.35687804	     -0.34241008	      0.79000628	      1.43381190	     -0.27991846	      0.87341898	      1.35926779	     -0.26915761	      0.90288284	      1.15649795	     -0.27300457	      0.83278100	      0.88496900	     -0.26812500	      0.82957300	      0.87586800	     -0.21292200	      0.83398300	      0.87577800	     -0.31940100	      1.01770400	      0.49615200	     -0.20059400	      0.78867900	      0.46817600	     -0.32434900	      0.91211500	      0.09500300	     -0.19598000	      0.64822100	      0.07235700	     -0.31303200	      0.91234100	      0.97108300	     -0.26290500	      0.90808000	      0.97116900	     -0.16003500	      0.91660200	      0.97099600	     -0.36577500	      0.71322500	      0.99854600	     -0.22704400	      0.71444700	      1.00415900	     -0.31247700	      1.01915300	      0.49879900	     -0.14117100	      0.79840200	      0.46780800	     -0.38304800	      1.02042200	      0.50568500	     -0.26280200	      0.77184300	      0.47060300	     -0.27772300	      0.90448600	      0.09743800	     -0.15883300	      0.64812600	      0.07126100	     -0.35251700	      0.91478400	      0.09985700	     -0.22822300	      0.65638200	      0.07945700	     -0.28328900	      0.79484500	      1.45684800	     -0.27885200	      0.88460900	      1.38564900	     -0.18976100	      0.89264100	      1.38046800	     -0.34702900	      0.87657600	      1.38467600	     -0.27303300	      0.90714300	      1.18199600	     -0.27155200	      0.99899500	      0.59366100	     -0.05660000	      0.94957300	      0.57560100	     -0.32266200	      1.00164700	      0.66240700	     -0.12365500	      0.88767900	      0.64392900	     -0.36854800	      1.03479400	      0.58945400	     -0.14853900	      0.86523300	      0.55909900	     -0.36508800	      0.92996500	      0.17115000	     -0.09136000	      0.78182600	      0.14697600	     -0.30334100	      0.93311900	      0.22840600	     -0.15395900	      0.73390800	      0.21292200	     -0.32145600	      1.02469000	      0.05917500	     -0.18710700	      0.77325700	      0.04108700	     -0.31966000	      0.00000000	      0.00000000	      0.00000000	      1.32312512	      0.00000000	     -0.18441055	     10.41013428	    517.97923958	     20.57690792	      0.77937585	      0.00000000	     -0.31759918	      0.00000000	      0.00000000	      0.00000000	      0.00000000	     -0.90811499	      0.00000000	      0.83278054	      0.88496876	     -0.26812544	      0.82957274	      0.87586761	     -0.21292211	      0.83398288	      0.87577778	     -0.31940073	      1.01770425	      0.49615198	     -0.20059431	      0.78867918	      0.46817562	     -0.32434919	      0.91211540	      0.09500281	     -0.19597964	      0.64822137	      0.07235664	     -0.31303179	      0.91234112	      0.97108251	     -0.26290500	      0.90808046	      0.97116929	     -0.16003500	      0.91660178	      0.97099572	     -0.36577502	      0.71322525	      0.99854636	     -0.22704382	      0.71444696	      1.00415933	     -0.31247747	      1.01915336	      0.49879918	     -0.14117089	      0.79840195	      0.46780759	     -0.38304824	      1.02042186	      0.50568455	     -0.26280198	      0.77184272	      0.47060347	     -0.27772307	      0.90448600	      0.09743830	     -0.15883316	      0.64812636	      0.07126141	     -0.35251650	      0.91478372	      0.09985707	     -0.22822328	      0.65638244	      0.07945697	     -0.28328931	      0.79484546	      1.45684791	     -0.27885163	      0.88460869	      1.38564932	     -0.18976130	      0.89264059	      1.38046825	     -0.34702867	      0.87657565	      1.38467562	     -0.27303293	      0.90714276	      1.18199646	     -0.27155218	      0.99899483	      0.59366053	     -0.05660049	      0.94957250	      0.57560068	     -0.32266203	      1.00164652	      0.66240704	     -0.12365464	      0.88767886	      0.64392871	     -0.36854774	      1.03479362	      0.58945394	     -0.14853938	      0.86523283	      0.55909902	     -0.36508787	      0.92996496	      0.17115015	     -0.09135997	      0.78182632	      0.14697622	     -0.30334100	      0.93311864	      0.22840613	     -0.15395872	      0.73390818	      0.21292220	     -0.32145625	      1.02468991	      0.05917516	     -0.18710749	      0.77325749	      0.04108738	     -0.31966004
